<svg xmlns="http://www.w3.org/2000/svg" viewBox="0 0 100 100"><circle cx="50" cy="50" r="44" fill="none" stroke="#1e293b" stroke-width="5.5"/><circle cx="50" cy="50" r="13" fill="none" stroke="#1e293b" stroke-width="5.5"/><path d="M 35,23 A 30,30 0 0,1 65,23" fill="none" stroke="#1e293b" stroke-width="5" stroke-linecap="round"/><polygon points="60,14 72,23 60,32" fill="#1e293b"/><path d="M 77,65 A 30,30 0 0,0 77,35" fill="none" stroke="#1e293b" stroke-width="5" stroke-linecap="round"/><polygon points="69,38 77,26 85,38" fill="#1e293b"/><path d="M 65,77 A 30,30 0 0,1 35,77" fill="none" stroke="#1e293b" stroke-width="5" stroke-linecap="round"/><polygon points="40,68 28,77 40,86" fill="#1e293b"/><path d="M 23,65 A 30,30 0 0,1 23,35" fill="none" stroke="#1e293b" stroke-width="5" stroke-linecap="round"/><polygon points="15,38 23,26 31,38" fill="#1e293b"/></svg>
